<svg width="65" height="65" viewBox="0 0 65 65" fill="none" xmlns="http://www.w3.org/2000/svg">
<g clip-path="url(#clip0_108_71)">
<path d="M38.8321 9.14019C42.3234 10.1601 45.2665 12.5252 47.014 15.7151C48.7615 18.905 49.1702 22.6585 48.1503 26.1498L41.4462 49.0976L15.1184 41.4061L21.8225 18.4583C22.8425 14.967 25.2076 12.0239 28.3975 10.2764C31.5874 8.52892 35.3409 8.12023 38.8321 9.14019Z" stroke="#C62E3C" stroke-width="2" stroke-linecap="round" stroke-linejoin="round"/>
<path d="M23.835 43.9526L32.9074 46.6031L30.205 55.8534C29.8466 57.08 29.0157 58.1141 27.8949 58.7281C26.7741 59.3421 25.4553 59.4856 24.2287 59.1273C23.002 58.7689 21.9679 57.938 21.3539 56.8172C20.74 55.6964 20.5964 54.3776 20.9547 53.151L23.6572 43.9006L23.835 43.9526Z" stroke="#C62E3C" stroke-width="2" stroke-linecap="round" stroke-linejoin="round"/>
<path d="M29.9155 23.1394L26.2776 35.5917" stroke="#C62E3C" stroke-width="2" stroke-linecap="round" stroke-linejoin="round"/>
<path d="M38.9879 25.7898L35.35 38.2421" stroke="#C62E3C" stroke-width="2" stroke-linecap="round" stroke-linejoin="round"/>
</g>
<defs>
<clipPath id="clip0_108_71">
<rect width="65" height="65" fill="white"/>
</clipPath>
</defs>
</svg>
