<svg width="65" height="65" viewBox="0 0 65 65" fill="none" xmlns="http://www.w3.org/2000/svg">
<path d="M17.6469 23.925H45.8219V41.8407C45.8219 43.7494 45.0637 45.58 43.714 46.9296C42.3643 48.2793 40.5337 49.0376 38.625 49.0376H24.8437C22.935 49.0376 21.1045 48.2793 19.7548 46.9296C18.4052 45.58 17.6469 43.7494 17.6469 41.8407V23.925Z" stroke="#C62E3C" stroke-width="2" stroke-linecap="round" stroke-linejoin="round"/>
<path d="M12.5938 49.0376H50.5687C50.5687 50.3372 50.0525 51.5835 49.1336 52.5024C48.2146 53.4213 46.9684 53.9376 45.6688 53.9376H17.6469C16.3473 53.9376 15.101 53.4213 14.1821 52.5024C13.2632 51.5835 12.7469 50.3372 12.7469 49.0376H12.5938Z" stroke="#C62E3C" stroke-width="2" stroke-linecap="round" stroke-linejoin="round"/>
<path d="M22.2406 18.5655V12.8999" stroke="#C62E3C" stroke-width="2" stroke-linecap="round" stroke-linejoin="round"/>
<path d="M40.9219 18.7187V12.8999" stroke="#C62E3C" stroke-width="2" stroke-linecap="round" stroke-linejoin="round"/>
<path d="M31.5813 16.4219V11.0625" stroke="#C62E3C" stroke-width="2" stroke-linecap="round" stroke-linejoin="round"/>
<path d="M45.8343 27.2937H53.1719V32.9593C53.1719 34.9493 52.3814 36.8577 50.9743 38.2648C49.5671 39.6719 47.8242 40.462 45.8342 40.462L45.8343 27.2937Z" stroke="#C62E3C" stroke-width="2" stroke-linecap="round" stroke-linejoin="round"/>
</svg>
