<svg width="65" height="65" viewBox="0 0 65 65" fill="none" xmlns="http://www.w3.org/2000/svg">
<path d="M14.923 19.9951L14.4241 20.4192C14.4241 20.4192 14.408 20.4349 14.3919 20.4506L13.2169 21.4245L13.2974 21.4716C10.8992 23.8905 9.41847 26.8121 9.08048 29.8122C9.0161 30.362 9 30.8646 9 31.3201C9 31.5086 9.0161 31.6971 9.03219 31.917V32.0112C9.03219 32.1212 9.04829 32.2311 9.06438 32.3411C9.09657 32.5924 9.12876 32.8437 9.17705 33.0793C9.19314 33.205 9.22533 33.3307 9.25752 33.472C9.3219 33.7547 9.38628 34.0218 9.45066 34.2574V34.3045C9.77257 35.404 10.2393 36.5507 10.8509 37.8229C11.2533 38.624 11.704 39.4879 12.2673 40.4618L12.9111 41.577C14.7621 44.8284 16.8705 48.5196 19.6067 52.3365L19.6872 52.4308C21.8439 54.8183 24.5157 57.2058 27.944 56.9859C29.3121 56.8916 30.6802 56.4204 32 55.5722C33.3359 56.4204 34.6879 56.8916 36.056 56.9859C36.2169 56.9859 36.3779 56.9859 36.5549 56.9859C39.2428 56.9859 41.9307 55.5251 44.5542 52.6193L44.6025 52.5564C46.9524 49.4935 48.578 46.3834 49.9944 43.6504C50.5899 42.5194 51.1372 41.4356 51.7166 40.4461C52.2799 39.4408 52.7467 38.5769 53.133 37.8072C53.7607 36.5349 54.2274 35.3726 54.5332 34.2888V34.2574C54.6137 33.9904 54.6781 33.7076 54.7425 33.4563C54.7747 33.3307 54.7908 33.205 54.823 33.0636C54.8712 32.8123 54.9034 32.5767 54.9356 32.3254C54.9356 32.2154 54.9517 32.1055 54.9678 31.9955V31.8542C54.9839 31.6657 55 31.4772 55 31.2887C55 30.8018 55 30.2991 54.9195 29.7651C54.5815 26.765 53.0847 23.8434 50.6865 21.4088L50.767 21.3617L49.592 20.3878L49.077 19.948H49.0448C47.1456 18.5815 44.7796 17.8118 42.3009 17.749H42.2204C42.2204 17.749 42.0756 17.749 41.9951 17.749C40.4017 17.749 38.8404 18.0474 37.3758 18.6443C36.8607 18.8485 36.3618 19.0998 35.8789 19.3668C36.6676 17.2463 37.8586 15.2672 39.3716 13.5551C39.5647 13.3352 39.774 13.1153 39.9832 12.8954L40.627 12.2357L40.0315 11.5289C39.5004 10.9006 39.0175 10.3508 38.5507 9.83249L37.7943 9L37.0056 9.78537C35.6536 11.1362 34.4948 12.6598 33.5129 14.3091C31.9356 11.7017 29.0385 10.0995 25.9321 10.1309H25.3205L25.0147 10.6493C23.711 12.9111 23.55 15.6128 24.5157 17.9689C23.6949 17.7961 22.874 17.7176 22.021 17.7176C21.9405 17.7176 21.8761 17.7176 21.7957 17.7176H21.6991C19.2204 17.7804 16.8544 18.5658 14.9552 19.948H14.923V19.9951ZM37.7299 12.1101C37.7299 12.1101 37.7943 12.1729 37.8104 12.2043C37.8104 12.2043 37.7782 12.2357 37.7621 12.2514C36.4745 13.7122 35.38 15.3458 34.5591 17.105C34.5591 17.0422 34.5269 16.9636 34.5108 16.9008C35.3639 15.1416 36.4262 13.5394 37.7138 12.1101H37.7299ZM26.5759 12.2671C28.7005 12.4399 30.6158 13.618 31.7103 15.4086C32.0161 15.9269 32.2575 16.4767 32.4185 17.0579C32.7404 18.283 32.6921 19.5867 32.2736 20.7962C32.2092 20.7962 32.1449 20.7962 32.0805 20.7962C32.0644 20.7962 32.0322 20.7962 32.0161 20.7962C31.4528 20.7648 30.9055 20.6077 30.3422 20.4035C30.0042 20.2779 29.6662 20.1365 29.3282 19.9794C29.1672 19.9166 29.0063 19.8381 28.8614 19.7752C28.781 19.7438 28.6844 19.6967 28.6039 19.6653C28.443 19.571 28.282 19.4768 28.105 19.3668C28.0567 19.3354 27.9923 19.304 27.9279 19.2726C27.8314 19.2255 27.7509 19.1783 27.6382 19.1155C27.3324 18.7857 27.091 18.4715 26.8978 18.1417C25.8034 16.3353 25.6907 14.1363 26.5598 12.2357L26.5759 12.2671ZM16.1141 21.7544C16.1141 21.7544 16.1141 21.7544 16.1141 21.7386C17.6753 20.5763 19.6711 19.9009 21.7635 19.8538C21.8118 19.8538 21.8761 19.8538 21.9244 19.8538C21.9566 19.8538 21.9888 19.8538 22.021 19.8538C23.3408 19.8538 24.6284 20.1051 25.8516 20.592C26.077 20.6863 26.3023 20.7962 26.5276 20.9062C26.9139 21.0946 27.2358 21.2831 27.5255 21.4716L27.7187 21.5659C27.9762 21.6601 28.2176 21.7858 28.4752 21.8957C29.4892 22.3355 30.648 22.8382 31.9839 22.8853H32.0161H32.0483C32.2897 22.8853 32.5311 22.8539 32.7726 22.8224L32.7243 23.0266L34.5913 22.2884C34.9132 22.1627 35.219 22.0214 35.5409 21.8957C35.7985 21.7858 36.056 21.6758 36.3135 21.5659L36.5066 21.4716C37.0217 21.1261 37.585 20.8433 38.1645 20.6077C39.3716 20.1208 40.6592 19.8695 41.979 19.8695C42.0112 19.8695 42.0434 19.8695 42.0756 19.8695C42.1239 19.8695 42.1882 19.8695 42.2365 19.8695C44.3289 19.9166 46.3086 20.592 47.8859 21.7544V21.7701C47.8859 21.7701 48.0952 22.147 48.5136 22.2727C50.9923 24.4874 52.5213 27.2362 52.8271 30.0635C52.8754 30.5033 52.8915 30.9117 52.8915 31.3201C52.8915 31.4772 52.8915 31.6343 52.8593 31.807V31.917C52.8593 31.9955 52.8432 32.0741 52.8271 32.1526C52.8111 32.3568 52.7789 32.561 52.7306 32.7652C52.7145 32.8594 52.6984 32.9694 52.6662 33.0793C52.6179 33.3149 52.5696 33.5348 52.4892 33.8019C52.2155 34.7757 51.7971 35.8124 51.2176 36.9748C50.8474 37.713 50.4129 38.5455 49.8656 39.5036C49.2701 40.5246 48.7068 41.6241 48.1113 42.7708C46.7271 45.4253 45.1658 48.4411 42.9286 51.347C40.6109 53.8915 38.3415 55.1324 36.1686 54.9754C34.9937 54.8968 33.8027 54.4099 32.5955 53.5303L31.9678 53.0748L31.3401 53.5303C30.1491 54.4099 28.9419 54.8968 27.767 54.9754C25.7712 55.1167 23.8237 53.9701 21.2645 51.1585C18.6088 47.4515 16.5486 43.8231 14.7138 40.6189L14.07 39.5036C13.5388 38.5612 13.0882 37.7287 12.7019 36.9748C12.1386 35.8124 11.7201 34.7757 11.4465 33.8333V33.7705C11.366 33.5348 11.3016 33.3149 11.2533 33.095C11.2372 32.9851 11.205 32.8908 11.1889 32.7652C11.1568 32.561 11.1246 32.3568 11.0924 32.1683C11.0924 32.0898 11.0924 32.0112 11.0763 31.9327V31.7756C11.0602 31.6186 11.0441 31.4772 11.0441 31.3201C11.0441 30.9431 11.0441 30.519 11.1085 30.0635C11.4304 27.2519 12.9594 24.5031 15.422 22.2727C15.8404 22.147 16.0497 21.7701 16.0497 21.7701L16.1141 21.7544Z" fill="#C62E3C"/>
</svg>
