<svg width="65" height="65" viewBox="0 0 65 65" fill="none" xmlns="http://www.w3.org/2000/svg">
<g clip-path="url(#clip0_108_136)">
<path d="M25.2674 45.3366C25.4719 45.6387 25.8242 45.7836 26.1765 45.7232L33.1079 44.3943L38.0622 49.7101C38.244 49.9034 38.4713 50.0001 38.7213 50.0001C38.8235 50.0001 38.9144 49.988 39.0167 49.9517C39.3462 49.8309 39.5962 49.5168 39.6417 49.1544L40.5962 41.7363L46.8799 38.3656C47.1981 38.1965 47.3913 37.8582 47.3913 37.4716C47.3913 37.0971 47.1867 36.7588 46.8686 36.5896L40.528 33.3397L39.4599 25.9459C39.403 25.5713 39.1644 25.2693 38.8235 25.1606C38.4826 25.0518 38.119 25.1485 37.8804 25.4143L33.0056 30.8147L26.0628 29.6065C25.7106 29.5461 25.3697 29.7032 25.1651 30.0052C24.9606 30.3073 24.9379 30.718 25.1083 31.0442L28.4377 37.6407L25.2106 44.2976C25.0515 44.6359 25.0742 45.0346 25.2901 45.3366H25.2674ZM30.2785 38.0877C30.4149 37.7978 30.4149 37.4595 30.2785 37.1695L27.6082 31.8779L33.1875 32.8444C33.4829 32.8927 33.7897 32.784 34.0056 32.5544L37.9145 28.2172L38.7781 34.1492C38.8235 34.4633 39.0167 34.7412 39.2894 34.8861L44.3801 37.4957L39.3349 40.202C39.0622 40.347 38.8803 40.6248 38.8349 40.951L38.0736 46.9072L34.0965 42.6424C33.9261 42.4491 33.6874 42.3525 33.4374 42.3525C33.3806 42.3525 33.3238 42.3525 33.2784 42.3646L27.7218 43.4277L30.3126 38.0877H30.2785Z" fill="#C62E3C"/>
<path d="M50.4934 20.7386L48.8117 22.877L46.1982 22.6233C45.8459 22.5871 45.505 22.7683 45.3232 23.0824C45.1414 23.3966 45.1414 23.8073 45.3232 24.1214L46.7209 26.4773L45.6868 29.0386C45.5505 29.3769 45.6073 29.7756 45.8345 30.0655C46.0618 30.3555 46.4254 30.4763 46.7663 30.3796L49.3116 29.7031L51.2774 31.5395C51.4479 31.6965 51.6638 31.7811 51.891 31.7811C52.0047 31.7811 52.1297 31.7569 52.2433 31.7086C52.5728 31.5636 52.7887 31.2374 52.8115 30.8629L52.9933 28.0842L55.2545 26.6585C55.5613 26.4652 55.7318 26.1149 55.709 25.7404C55.6863 25.3658 55.459 25.0396 55.1295 24.9067L52.6978 23.8677L52.1183 21.1494C52.0388 20.787 51.7774 20.497 51.4365 20.4124C51.0956 20.3279 50.732 20.4487 50.5047 20.7386H50.4934ZM51.1752 27.4559L51.0956 28.7607L50.1639 27.8909C49.9934 27.7338 49.7775 27.6492 49.5503 27.6492C49.4707 27.6492 49.4025 27.6492 49.323 27.6855L48.1299 27.9996L48.6185 26.7914C48.7435 26.4894 48.7094 26.1511 48.5503 25.8733L47.8912 24.7618L49.1185 24.8826C49.4253 24.9067 49.7207 24.7859 49.9139 24.5322L50.7093 23.5294L50.982 24.8101C51.0502 25.1242 51.2547 25.39 51.5388 25.5108L52.6865 25.9941L51.6297 26.6585C51.3683 26.8277 51.1979 27.1176 51.1752 27.4438V27.4559Z" fill="#C62E3C"/>
<path d="M12.7108 25.4986L11.7677 30.2587C11.6995 30.6211 11.8245 31.0077 12.0972 31.2373C12.3699 31.4668 12.7562 31.5152 13.0744 31.346L17.1992 29.2438L21.1649 31.6722C21.3126 31.7568 21.4717 31.8051 21.6308 31.8051C21.8126 31.8051 21.9944 31.7447 22.1421 31.636C22.4376 31.4306 22.5966 31.0561 22.5398 30.6936L21.9376 25.8731L25.3351 22.6111C25.5965 22.3574 25.6988 21.9708 25.6079 21.6084C25.517 21.2459 25.2329 20.9801 24.8806 20.9076L20.3809 20.0257L18.5173 15.5797C18.3696 15.2414 18.0628 15.0119 17.7105 14.9998C17.3583 14.9877 17.0288 15.181 16.8583 15.5193L14.6766 19.7961L10.1314 20.3156C9.77912 20.3519 9.48368 20.6056 9.35869 20.956C9.2337 21.3063 9.31324 21.705 9.55186 21.9708L12.7108 25.4986ZM16.0743 21.1855L17.5855 18.2014L18.8923 21.2942C19.0173 21.5842 19.2673 21.8017 19.5741 21.8621L22.7103 22.4782L20.3468 24.7495C20.1195 24.967 20.0059 25.2932 20.0513 25.6073L20.4718 28.966L17.7105 27.2746C17.5742 27.19 17.4037 27.1417 17.2446 27.1417C17.1083 27.1417 16.9719 27.1779 16.8469 27.2383L13.9721 28.7002L14.6311 25.3899C14.6993 25.0757 14.6084 24.7375 14.3925 24.5079L12.1995 22.0554L15.3697 21.6929C15.6765 21.6567 15.9379 21.4634 16.0856 21.1855H16.0743Z" fill="#C62E3C"/>
</g>
<defs>
<clipPath id="clip0_108_136">
<rect width="46.3953" height="35" fill="white" transform="translate(9.30232 15)"/>
</clipPath>
</defs>
</svg>
