<svg width="65" height="65" viewBox="0 0 65 65" fill="none" xmlns="http://www.w3.org/2000/svg">
<rect width="65" height="65" fill="white"/>
<g clip-path="url(#clip0_108_72)">
<path d="M25.1463 48.4336C28.8714 52.4448 33.8234 54.7529 39.1007 54.9439C39.3372 54.9439 39.5589 54.9439 39.7954 54.9439C45.2648 54.9439 50.5864 52.5881 54.4594 48.4177C58.3766 44.1995 60.5348 38.5965 60.5348 32.6433C60.5348 26.6902 58.3766 21.0872 54.4594 16.869C50.3647 12.4598 44.9101 10.1518 39.1007 10.3746C37.9329 10.4224 36.7946 10.5656 35.686 10.8044L35.5677 10.8362C34.3851 11.2501 33.8825 12.0141 33.6756 12.5872C33.2173 13.8128 33.7051 15.1181 34.0451 15.8184L34.119 15.9458C34.119 15.9458 34.1782 16.0413 34.193 16.089L34.2225 16.1686V16.2005C35.6564 19.2089 35.1095 22.8381 32.8921 25.2257C30.5861 27.7089 26.994 28.2182 24.1559 26.4673L22.7072 25.5759V25.9898C22.2637 25.942 21.835 25.9898 21.4359 26.1649C20.2238 26.6424 19.6473 27.884 19.5142 28.266L19.4551 28.4729C18.1691 35.7473 20.2977 43.2126 25.1463 48.4336ZM21.3325 28.9823C21.4211 28.7754 21.6872 28.2819 22.1159 28.1227C22.4116 27.9954 22.8107 28.075 23.2541 28.3138L23.4463 28.4252C23.5941 28.5048 23.7272 28.5844 23.875 28.648L25.1906 29.3643L25.1463 29.1733C28.3244 30.208 31.8574 29.3166 34.2669 26.7061C36.972 23.7932 37.7111 19.4317 36.159 15.707L36.2329 15.5797L35.8633 15.0703C35.8633 15.0703 35.8042 14.943 35.7599 14.8952L35.7155 14.8315C35.4347 14.2426 35.3312 13.6855 35.4494 13.383C35.5381 13.1602 35.7599 12.9851 36.1146 12.8578C37.0903 12.6508 38.1102 12.5235 39.145 12.4917C44.4075 12.2847 49.3595 14.3859 53.0698 18.3812C56.6176 22.2014 58.5688 27.2791 58.5688 32.6911C58.5688 38.1031 56.6176 43.1808 53.0698 47.001C49.3595 50.9963 44.4075 53.1134 39.145 52.9065C34.3703 52.7314 29.8766 50.6302 26.4914 47.001C22.1307 42.3053 20.1942 35.5881 21.3177 29.0141L21.3325 28.9823Z" fill="#C62E3C"/>
<path d="M28.3392 41.0318C29.4627 40.7134 30.4087 39.9334 30.9852 38.8511C31.5617 37.7687 31.7243 36.4952 31.4139 35.2855C30.7931 32.7864 28.3983 31.2902 26.0775 31.9587C24.9541 32.2771 24.008 33.057 23.4315 34.1394C22.855 35.2218 22.6924 36.4952 23.0028 37.705C23.2985 38.9147 24.0228 39.9334 25.028 40.5542C25.6932 40.9681 26.4471 41.1909 27.201 41.1909C27.5853 41.1909 27.9549 41.1432 28.3392 41.0318ZM25.5158 39.6629C24.7324 39.1694 24.1706 38.3894 23.9341 37.4503C23.6976 36.5112 23.8159 35.5243 24.2741 34.6806C24.7324 33.837 25.4567 33.2321 26.3288 32.9775C28.1323 32.4522 29.9948 33.6142 30.4826 35.5561C30.7192 36.4952 30.6009 37.4821 30.1426 38.3258C29.6844 39.1694 28.9601 39.7743 28.0731 40.029C27.201 40.2836 26.2845 40.1563 25.501 39.6629H25.5158Z" fill="#C62E3C"/>
<path d="M32.0495 48.3539C32.6261 49.4363 33.5721 50.2162 34.6956 50.5346C35.0651 50.646 35.4495 50.6938 35.8338 50.6938C36.9129 50.6938 37.9772 50.2481 38.805 49.4204C39.4111 48.8155 39.8398 48.0514 40.0467 47.2078C40.4606 45.5365 39.9876 43.7537 38.805 42.5599C38.2876 42.0346 37.652 41.6526 36.9572 41.4616C34.6364 40.793 32.2417 42.2734 31.6209 44.7724C31.3252 45.9822 31.473 47.2556 32.0495 48.338V48.3539ZM32.5521 45.0589C33.04 43.117 34.9025 41.955 36.7059 42.4803C37.2529 42.6395 37.7259 42.926 38.1398 43.3398C39.0563 44.2631 39.4259 45.6479 39.1007 46.9531C38.9381 47.6058 38.5981 48.2106 38.1398 48.6722C37.2824 49.5477 36.0851 49.866 34.9469 49.5318C34.0747 49.2771 33.3356 48.6722 32.8921 47.8286C32.4339 46.985 32.3156 45.9981 32.5521 45.0589Z" fill="#C62E3C"/>
<path d="M47.763 38.4373C46.5952 38.4373 45.5013 38.9307 44.6883 39.8062C42.9884 41.6367 42.9884 44.6133 44.6883 46.4438C45.5161 47.3352 46.61 47.8127 47.763 47.8127C48.916 47.8127 50.0247 47.3193 50.8377 46.4438C51.6655 45.5524 52.109 44.3745 52.109 43.1329C52.109 41.8914 51.6507 40.6976 50.8377 39.8221C50.0099 38.9307 48.916 38.4532 47.763 38.4532V38.4373ZM50.1577 45.7116C49.5221 46.3961 48.6647 46.7781 47.763 46.7781C46.8613 46.7781 46.0039 46.3961 45.3683 45.7116C44.0527 44.279 44.0527 41.971 45.3683 40.5384C46.0039 39.8539 46.8613 39.4719 47.763 39.4719C48.6647 39.4719 49.5221 39.8539 50.1577 40.5384C50.7934 41.2228 51.1481 42.1461 51.1481 43.117C51.1481 44.088 50.7934 45.0112 50.1577 45.6957V45.7116Z" fill="#C62E3C"/>
<path d="M47.423 32.0224C47.9404 34.1235 49.7143 35.5083 51.636 35.5083C52.0055 35.5083 52.3899 35.4606 52.7594 35.3491C53.8829 35.0308 54.8289 34.2508 55.4054 33.1684C55.9819 32.086 56.1445 30.8126 55.8341 29.6029C55.2133 27.1038 52.8185 25.6076 50.4977 26.2761C48.1769 26.9447 46.8022 29.5233 47.423 32.0224ZM50.7638 27.2789C52.5672 26.7536 54.4298 27.9156 54.9176 29.8576C55.1541 30.7967 55.0359 31.7836 54.5776 32.6272C54.1194 33.4709 53.395 34.0757 52.5229 34.3304C50.7195 34.8557 48.8569 33.6937 48.3691 31.7518C47.8813 29.8098 48.9604 27.8042 50.7638 27.2789Z" fill="#C62E3C"/>
<path d="M41.8945 25.6712C42.264 25.7827 42.6484 25.8304 43.0327 25.8304C43.7866 25.8304 44.5257 25.6235 45.2057 25.1937C46.2109 24.5729 46.9352 23.5542 47.2309 22.3445C47.8517 19.8454 46.477 17.2667 44.1414 16.5982C41.8206 15.9297 39.4259 17.41 38.805 19.925C38.5094 21.1347 38.6572 22.3922 39.2337 23.4905C39.8102 24.5729 40.7563 25.3529 41.8797 25.6712H41.8945ZM39.7511 20.1956C40.2389 18.2536 42.1014 17.0917 43.9049 17.6169C45.7083 18.1422 46.7874 20.1478 46.2996 22.0898C46.0631 23.0289 45.5013 23.8248 44.7179 24.3182C43.9344 24.8117 43.0179 24.939 42.1458 24.6843C41.2736 24.4297 40.5345 23.8248 40.0763 22.9812C39.618 22.1375 39.4998 21.1506 39.7363 20.2115L39.7511 20.1956Z" fill="#C62E3C"/>
<path d="M13.4683 7.50936L13.1579 7.9073H13.1431L13.4388 7.47753L12.8623 7L12.271 7.47753C12.0492 7.65262 6.78677 11.9981 6.78677 17.5534C6.78677 21.294 7.99891 23.0449 9.58061 23.8408C9.52148 24.2228 9.46235 24.589 9.418 24.9551C8.82672 29.1573 8.67889 33.9803 8.97454 38.5169C9.96495 53.6545 10.7484 57.6339 12.7883 57.8727L13.8527 58V57.4747C15.4196 56.265 15.9517 51.2032 16.6908 38.4054C16.9569 33.8848 16.8091 29.0777 16.2917 24.8755L16.1735 23.9682C16.1735 23.9682 16.1735 23.8886 16.1587 23.8408C17.7404 23.0449 18.9377 21.294 18.9377 17.5534C18.923 12.1891 14.03 7.97097 13.4683 7.50936ZM14.7692 38.2781C14.4587 43.6742 13.897 53.4316 12.9066 55.485C11.8571 53.1451 11.1771 42.926 10.8814 38.3736C10.6006 33.9963 10.7484 29.3324 11.3101 25.2734C11.3545 24.9869 11.3988 24.6845 11.4432 24.3979C11.9162 24.4616 12.404 24.4775 12.877 24.4775C13.3353 24.4775 13.7935 24.4616 14.2518 24.3979C14.2813 24.6526 14.3257 24.8914 14.3553 25.1461L14.4735 26.0375C14.8874 29.8895 14.9909 34.2032 14.7544 38.2622L14.7692 38.2781ZM16.7795 18.397C16.9126 18.1742 16.9717 17.9036 16.9865 17.6011C16.9865 21.6442 15.597 22.3923 12.8475 22.4082C10.098 22.4082 8.70846 21.6601 8.70846 17.5534C8.70846 17.1236 8.75281 16.7097 8.82672 16.2959C9.10758 16.471 9.418 16.5665 9.75799 16.5665C11.0884 16.6142 11.5171 15.3408 11.8127 14.4972C11.9605 14.0515 12.1379 13.5421 12.2858 13.5262C12.5223 13.6536 12.9214 14.7678 13.1727 15.5159C13.7492 17.1713 14.3996 19.0337 15.6413 19.0337C15.7448 19.0337 15.8335 19.0337 15.937 19.0019C16.2917 18.9223 16.5726 18.7154 16.75 18.397H16.7795ZM15.6265 15.0861C15.863 16.0094 16.2178 17.3783 15.9517 17.8558C15.9222 17.9036 15.8778 17.9672 15.7596 17.9831C15.1239 18.1264 14.5326 16.4073 14.0892 15.1498C13.5718 13.6695 13.1727 12.4916 12.3449 12.4916H12.3005C11.4727 12.5393 11.1623 13.4307 10.911 14.1311C10.5858 15.0861 10.3641 15.5478 9.78756 15.5159C9.35888 15.5159 9.0041 15.2612 8.72324 14.7678C9.74321 11.9185 12.0345 9.67416 12.8327 8.94195C13.4092 9.45131 14.71 10.7247 15.7891 12.4438C15.6857 12.4757 15.5822 12.5393 15.4935 12.6348C15.0796 13.0646 15.2865 13.8605 15.597 15.0702L15.6265 15.0861Z" fill="#C62E3C"/>
</g>
<defs>
<clipPath id="clip0_108_72">
<rect width="53.7185" height="51" fill="white" transform="translate(6.78677 7)"/>
</clipPath>
</defs>
</svg>
