<svg width="65" height="65" viewBox="0 0 65 65" fill="none" xmlns="http://www.w3.org/2000/svg">
<rect width="65" height="65" fill="white"/>
<g clip-path="url(#clip0_108_70)">
<path d="M14.926 38.8844C14.926 37.5855 15.9303 36.5339 17.171 36.5339C18.4117 36.5339 19.416 37.5855 19.416 38.8844C19.416 39.0453 19.4515 39.1937 19.5224 39.3298C19.8296 41.4329 21.5547 43.0411 23.6461 43.0411C25.7376 43.0411 27.6045 41.2968 27.8053 39.0824C27.8172 39.0205 27.829 38.9463 27.829 38.8721C27.829 37.5731 28.8333 36.5215 30.074 36.5215C31.3147 36.5215 32.319 37.5731 32.319 38.8721C32.319 39.0329 32.3545 39.1813 32.4254 39.3174C32.7326 41.4205 34.4577 43.0288 36.5491 43.0288C38.6405 43.0288 40.5075 41.2844 40.7083 39.07C40.7202 39.0081 40.732 38.9339 40.732 38.8597C40.732 37.5607 41.7363 36.5092 42.977 36.5092C44.2177 36.5092 45.222 37.5607 45.222 38.8597C45.222 39.4164 45.6474 39.8741 46.1791 39.8741C46.7108 39.8741 47.148 39.4164 47.148 38.8597C47.148 36.4473 45.2811 34.4927 42.977 34.4927C40.8147 34.4927 39.0187 36.237 38.8178 38.4514C38.806 38.5133 38.7942 38.5875 38.7942 38.6617C38.7942 39.9607 37.7898 41.0123 36.5491 41.0123C35.3085 41.0123 34.3041 39.9607 34.3041 38.6617C34.3041 38.5009 34.2687 38.3525 34.1978 38.2164C33.8905 36.1133 32.1654 34.505 30.074 34.505C27.9826 34.505 26.1157 36.2494 25.9148 38.4638C25.903 38.5257 25.8912 38.5999 25.8912 38.6741C25.8912 39.9731 24.8868 41.0246 23.6461 41.0246C22.4055 41.0246 21.4011 39.9731 21.4011 38.6741C21.4011 38.5133 21.3657 38.3648 21.2948 38.2288C20.9876 36.1257 19.2624 34.5174 17.171 34.5174C14.8669 34.5174 13 36.4721 13 38.8844C13 39.4411 13.4372 39.8989 13.9689 39.8989C14.0044 39.8989 14.0516 39.8989 14.0871 39.8865C14.5597 39.8246 14.926 39.404 14.926 38.8844Z" fill="#C62E3C"/>
<path d="M42.2444 15.367V19.2763H32.1654V15.367C32.1654 14.068 33.2643 13.0165 34.6231 13.0165C35.982 13.0165 37.0808 14.068 37.0808 15.367C37.0808 15.9237 37.5062 16.3691 38.0498 16.3691C38.5933 16.3691 39.0068 15.9113 39.0068 15.367C39.0068 12.9546 37.0454 11 34.6231 11C32.2009 11 30.2394 12.967 30.2394 15.367V31.6227C30.2394 32.1794 30.6648 32.6247 31.1965 32.6247C31.7282 32.6247 32.1654 32.1794 32.1654 31.6227V28.1464H42.2444V31.6227C42.2444 32.1794 42.6816 32.6247 43.2133 32.6247C43.745 32.6247 44.1822 32.1794 44.1822 31.6227V15.367C44.1822 14.068 45.2811 13.0165 46.6399 13.0165C47.9988 13.0165 49.0976 14.068 49.0976 15.367C49.0976 15.9237 49.523 16.3691 50.0547 16.3691C50.5864 16.3691 51.0236 15.9113 51.0236 15.367C51.0236 12.9546 49.0622 11 46.6399 11C44.2177 11 42.2562 12.967 42.2562 15.367H42.2444ZM32.1654 26.1423V21.3052H42.2444V26.1423H32.1654Z" fill="#C62E3C"/>
<path d="M42.9652 44.4763C40.8029 44.4763 39.0068 46.2206 38.806 48.4351C38.7942 48.4969 38.7823 48.5712 38.7823 48.6454C38.7823 49.9444 37.778 50.9959 36.5373 50.9959C35.2966 50.9959 34.2923 49.9444 34.2923 48.6454C34.2923 48.4846 34.2568 48.3361 34.1859 48.2C33.8787 46.0969 32.1536 44.4887 30.0622 44.4887C27.9708 44.4887 26.1039 46.233 25.903 48.4475C25.8912 48.5093 25.8794 48.5835 25.8794 48.6578C25.8794 49.9567 24.875 51.0083 23.6343 51.0083C22.3937 51.0083 21.3893 49.9567 21.3893 48.6578C21.3893 48.4969 21.3539 48.3485 21.283 48.2124C20.9757 46.1093 19.2506 44.5011 17.1592 44.5011C15.9303 44.5011 14.8315 45.0578 14.0634 45.9485C13.3899 46.7279 12.9764 47.7423 12.9764 48.8681C12.9764 49.4248 13.4136 49.8825 13.9453 49.8825C13.9807 49.8825 14.028 49.8825 14.0634 49.8825C14.5361 49.8206 14.9024 49.4 14.9024 48.8804C14.9024 47.5815 15.9067 46.5299 17.1474 46.5299C18.3881 46.5299 19.3924 47.5815 19.3924 48.8804C19.3924 49.0413 19.4279 49.1897 19.4988 49.3258C19.806 51.4289 21.5311 53.0371 23.6225 53.0371C25.7139 53.0371 27.5808 51.2928 27.7817 49.0784C27.7935 49.0165 27.8053 48.9423 27.8053 48.8681C27.8053 47.5691 28.8097 46.5176 30.0504 46.5176C31.291 46.5176 32.2954 47.5691 32.2954 48.8681C32.2954 49.0289 32.3308 49.1773 32.4017 49.3134C32.709 51.4165 34.4341 53.0248 36.5255 53.0248C38.6169 53.0248 40.4838 51.2804 40.6847 49.066C40.6965 49.0042 40.7083 48.9299 40.7083 48.8557C40.7083 47.5567 41.7127 46.5052 42.9534 46.5052C44.194 46.5052 45.1984 47.5567 45.1984 48.8557C45.1984 49.4124 45.6238 49.8701 46.1555 49.8701C46.6872 49.8701 47.1244 49.4248 47.1244 48.8557C47.1244 47.7918 46.7581 46.8268 46.1555 46.0722C45.3874 45.1072 44.2295 44.4887 42.9415 44.4887L42.9652 44.4763Z" fill="#C62E3C"/>
</g>
<defs>
<clipPath id="clip0_108_70">
<rect width="38" height="42" fill="white" transform="translate(13 11)"/>
</clipPath>
</defs>
</svg>
